<?xml version="1.0" encoding="UTF-8" standalone="no"?>
<!DOCTYPE svg PUBLIC "-//W3C//DTD SVG 1.1//EN" "http://www.w3.org/Graphics/SVG/1.1/DTD/svg11.dtd">
<svg xmlns="http://www.w3.org/2000/svg" version="1.1" viewBox="0.00 0.00 341.00 341.00">
<path fill="#ffb800" d="
  M 179.14 0.00
  L 179.12 53.39
  A 0.55 0.55 0.0 0 0 179.63 53.94
  Q 193.45 54.97 206.59 59.27
  A 0.25 0.24 -68.9 0 0 206.90 59.13
  L 227.28 9.71
  A 0.31 0.30 -67.2 0 1 227.68 9.54
  L 243.29 15.97
  A 0.39 0.39 0.0 0 1 243.50 16.48
  L 223.26 65.56
  A 0.57 0.57 0.0 0 0 223.52 66.28
  Q 235.90 72.71 245.97 81.31
  A 0.60 0.60 0.0 0 0 246.78 81.28
  L 284.36 43.70
  A 0.38 0.38 0.0 0 1 284.90 43.70
  L 296.66 55.45
  A 0.57 0.57 0.0 0 1 296.66 56.26
  L 259.36 93.56
  A 0.26 0.26 0.0 0 1 259.12 93.63
  Q 258.90 93.59 258.68 93.68
  A 0.14 0.13 -30.5 0 0 258.62 93.89
  Q 267.78 104.47 274.18 116.96
  A 0.50 0.50 0.0 0 0 274.82 117.20
  L 323.81 97.11
  A 0.64 0.64 0.0 0 1 324.64 97.46
  L 330.83 112.56
  A 0.60 0.59 -22.6 0 1 330.51 113.33
  L 281.67 133.35
  A 0.63 0.62 -20.0 0 0 281.31 134.11
  Q 285.47 147.24 286.54 160.70
  A 0.61 0.61 0.0 0 0 287.15 161.26
  L 339.95 161.26
  A 0.64 0.64 0.0 0 1 340.59 161.90
  L 340.59 178.46
  A 0.30 0.30 0.0 0 1 340.29 178.76
  L 287.17 178.76
  A 0.65 0.65 0.0 0 0 286.52 179.37
  Q 285.47 193.07 281.30 205.82
  A 0.68 0.66 -70.3 0 0 281.68 206.65
  L 330.52 226.79
  A 0.57 0.57 0.0 0 1 330.83 227.53
  L 324.55 242.76
  A 0.51 0.50 22.2 0 1 323.89 243.03
  L 274.83 222.80
  A 0.50 0.50 0.0 0 0 274.19 223.03
  Q 267.99 235.24 258.90 245.83
  A 0.45 0.44 -56.7 0 0 259.04 246.52
  Q 259.07 246.53 259.30 246.56
  A 0.34 0.32 -15.6 0 1 259.47 246.65
  L 296.71 283.89
  A 0.45 0.45 0.0 0 1 296.71 284.53
  L 285.03 296.21
  A 0.61 0.61 0.0 0 1 284.17 296.21
  L 246.80 258.84
  A 0.68 0.68 0.0 0 0 245.90 258.79
  Q 245.34 259.23 242.11 261.86
  Q 235.22 267.47 223.52 273.82
  A 0.51 0.49 64.9 0 0 223.30 274.45
  L 243.44 323.59
  A 0.40 0.40 0.0 0 1 243.22 324.12
  L 227.91 330.40
  A 0.58 0.58 0.0 0 1 227.15 330.08
  L 207.10 281.17
  A 0.57 0.57 0.0 0 0 206.39 280.85
  Q 193.33 285.08 179.49 286.12
  A 0.37 0.37 0.0 0 0 179.15 286.49
  L 179.15 339.63
  A 0.57 0.57 0.0 0 1 178.58 340.20
  L 162.25 340.20
  A 0.60 0.59 -0.0 0 1 161.65 339.61
  L 161.65 286.43
  A 0.31 0.30 -88.0 0 0 161.37 286.12
  Q 147.72 285.11 134.45 280.83
  A 0.46 0.46 0.0 0 0 133.89 281.09
  L 113.65 330.19
  A 0.47 0.47 0.0 0 1 113.04 330.44
  L 97.77 324.14
  A 0.56 0.56 0.0 0 1 97.46 323.41
  L 117.64 274.49
  A 0.57 0.56 24.9 0 0 117.37 273.77
  Q 105.22 267.47 94.92 258.75
  A 0.58 0.57 42.3 0 0 94.14 258.78
  L 56.72 296.19
  A 0.59 0.59 0.0 0 1 55.88 296.19
  L 44.35 284.66
  A 0.68 0.68 0.0 0 1 44.35 283.70
  L 81.76 246.30
  A 0.54 0.53 47.0 0 0 81.78 245.57
  Q 72.88 235.19 66.73 223.06
  A 0.48 0.46 65.2 0 0 66.13 222.83
  L 16.99 242.98
  A 0.53 0.53 0.0 0 1 16.30 242.69
  L 9.99 227.29
  A 0.37 0.37 0.0 0 1 10.19 226.81
  L 59.18 206.72
  A 0.72 0.71 -19.8 0 0 59.59 205.85
  Q 55.32 192.48 54.36 179.28
  A 0.56 0.56 0.0 0 0 53.80 178.76
  L 0.95 178.76
  A 0.61 0.61 0.0 0 1 0.34 178.15
  L 0.34 161.93
  A 0.68 0.67 0.0 0 1 1.02 161.26
  L 54.06 161.26
  A 0.24 0.24 0.0 0 0 54.30 161.04
  Q 55.43 147.25 59.57 134.18
  A 0.65 0.64 20.3 0 0 59.20 133.39
  L 10.35 113.25
  A 0.54 0.53 23.0 0 1 10.06 112.55
  L 16.31 97.38
  A 0.60 0.60 0.0 0 1 17.09 97.06
  L 66.05 117.24
  A 0.52 0.51 24.4 0 0 66.71 117.00
  Q 72.99 104.66 82.05 94.17
  A 0.36 0.35 -59.7 0 0 81.91 93.61
  Q 81.87 93.59 81.65 93.61
  A 0.21 0.19 65.8 0 1 81.51 93.55
  L 44.21 56.25
  A 0.52 0.52 0.0 0 1 44.21 55.51
  L 56.06 43.66
  A 0.31 0.30 44.3 0 1 56.49 43.66
  L 94.11 81.29
  A 0.58 0.58 0.0 0 0 94.89 81.32
  Q 105.39 72.46 117.33 66.32
  A 0.58 0.57 -24.6 0 0 117.60 65.60
  L 97.49 16.55
  A 0.52 0.50 -22.8 0 1 97.77 15.89
  L 113.31 9.52
  A 0.29 0.29 0.0 0 1 113.69 9.68
  L 134.04 59.31
  A 0.03 0.03 0.0 0 0 134.08 59.33
  Q 147.36 55.01 161.19 53.93
  A 0.58 0.58 0.0 0 0 161.73 53.35
  L 161.69 0.00
  L 179.14 0.00
  Z
  M 252.50 170.03
  A 82.10 82.10 0.0 0 0 170.40 87.93
  A 82.10 82.10 0.0 0 0 88.30 170.03
  A 82.10 82.10 0.0 0 0 170.40 252.13
  A 82.10 82.10 0.0 0 0 252.50 170.03
  Z"
/>
<path fill="#ffb800" d="
  M 222.00 170.03
  A 51.59 51.59 0.0 0 1 170.41 221.62
  A 51.59 51.59 0.0 0 1 118.82 170.03
  A 51.59 51.59 0.0 0 1 170.41 118.44
  A 51.59 51.59 0.0 0 1 222.00 170.03
  Z
  M 191.36 170.03
  A 20.95 20.95 0.0 0 0 170.41 149.08
  A 20.95 20.95 0.0 0 0 149.46 170.03
  A 20.95 20.95 0.0 0 0 170.41 190.98
  A 20.95 20.95 0.0 0 0 191.36 170.03
  Z"
/>
</svg>
