<?xml version="1.0" encoding="UTF-8" standalone="no"?>
<!DOCTYPE svg PUBLIC "-//W3C//DTD SVG 1.1//EN" "http://www.w3.org/Graphics/SVG/1.1/DTD/svg11.dtd">
<svg xmlns="http://www.w3.org/2000/svg" version="1.1" viewBox="0.00 0.00 331.00 332.00">
<g stroke-width="2.00" fill="none" stroke-linecap="butt">
<path stroke="#a77a49" vector-effect="non-scaling-stroke" d="
  M 312.79 166.23
  A 147.51 147.51 0.0 0 0 165.28 18.72
  A 147.51 147.51 0.0 0 0 17.77 166.23
  A 147.51 147.51 0.0 0 0 165.28 313.74
  A 147.51 147.51 0.0 0 0 312.79 166.23"
/>
<path stroke="#a77a49" vector-effect="non-scaling-stroke" d="
  M 307.10 166.23
  A 141.82 141.82 0.0 0 0 165.28 24.41
  A 141.82 141.82 0.0 0 0 23.46 166.23
  A 141.82 141.82 0.0 0 0 165.28 308.05
  A 141.82 141.82 0.0 0 0 307.10 166.23"
/>
<path stroke="#a77a49" vector-effect="non-scaling-stroke" d="
  M 174.34 41.54
  A 9.06 9.06 0.0 0 0 165.28 32.48
  A 9.06 9.06 0.0 0 0 156.22 41.54
  A 9.06 9.06 0.0 0 0 165.28 50.60
  A 9.06 9.06 0.0 0 0 174.34 41.54"
/>
<path stroke="#a77a49" vector-effect="non-scaling-stroke" d="
  M 135.82 47.66
  A 9.06 9.06 0.0 0 0 126.76 38.60
  A 9.06 9.06 0.0 0 0 117.70 47.66
  A 9.06 9.06 0.0 0 0 126.76 56.72
  A 9.06 9.06 0.0 0 0 135.82 47.66"
/>
<path stroke="#a77a49" vector-effect="non-scaling-stroke" d="
  M 212.86 47.66
  A 9.06 9.06 0.0 0 0 203.80 38.60
  A 9.06 9.06 0.0 0 0 194.74 47.66
  A 9.06 9.06 0.0 0 0 203.80 56.72
  A 9.06 9.06 0.0 0 0 212.86 47.66"
/>
<path stroke="#a77a49" vector-effect="non-scaling-stroke" d="
  M 101.06 65.36
  A 9.06 9.06 0.0 0 0 92.00 56.30
  A 9.06 9.06 0.0 0 0 82.94 65.36
  A 9.06 9.06 0.0 0 0 92.00 74.42
  A 9.06 9.06 0.0 0 0 101.06 65.36"
/>
<path stroke="#a77a49" vector-effect="non-scaling-stroke" d="
  M 247.61 65.37
  A 9.06 9.06 0.0 0 0 238.55 56.31
  A 9.06 9.06 0.0 0 0 229.49 65.37
  A 9.06 9.06 0.0 0 0 238.55 74.43
  A 9.06 9.06 0.0 0 0 247.61 65.37"
/>
<path stroke="#a77a49" vector-effect="non-scaling-stroke" d="
  M 270.23 166.23
  A 104.95 104.95 0.0 0 0 165.28 61.28
  A 104.95 104.95 0.0 0 0 60.33 166.23
  A 104.95 104.95 0.0 0 0 165.28 271.18
  A 104.95 104.95 0.0 0 0 270.23 166.23"
/>
<path stroke="#a77a49" vector-effect="non-scaling-stroke" d="
  M 73.48 92.96
  A 9.05 9.05 0.0 0 0 64.43 83.91
  A 9.05 9.05 0.0 0 0 55.38 92.96
  A 9.05 9.05 0.0 0 0 64.43 102.01
  A 9.05 9.05 0.0 0 0 73.48 92.96"
/>
<path stroke="#a77a49" vector-effect="non-scaling-stroke" d="
  M 275.21 92.96
  A 9.06 9.06 0.0 0 0 266.15 83.90
  A 9.06 9.06 0.0 0 0 257.09 92.96
  A 9.06 9.06 0.0 0 0 266.15 102.02
  A 9.06 9.06 0.0 0 0 275.21 92.96"
/>
<path stroke="#a77a49" vector-effect="non-scaling-stroke" d="
  M 55.77 127.71
  A 9.06 9.06 0.0 0 0 46.71 118.65
  A 9.06 9.06 0.0 0 0 37.65 127.71
  A 9.06 9.06 0.0 0 0 46.71 136.77
  A 9.06 9.06 0.0 0 0 55.77 127.71"
/>
<path stroke="#a77a49" vector-effect="non-scaling-stroke" d="
  M 292.92 127.71
  A 9.06 9.06 0.0 0 0 283.86 118.65
  A 9.06 9.06 0.0 0 0 274.80 127.71
  A 9.06 9.06 0.0 0 0 283.86 136.77
  A 9.06 9.06 0.0 0 0 292.92 127.71"
/>
<path stroke="#a77a49" vector-effect="non-scaling-stroke" d="
  M 49.67 166.22
  A 9.06 9.06 0.0 0 0 40.61 157.16
  A 9.06 9.06 0.0 0 0 31.55 166.22
  A 9.06 9.06 0.0 0 0 40.61 175.28
  A 9.06 9.06 0.0 0 0 49.67 166.22"
/>
<path stroke="#a77a49" vector-effect="non-scaling-stroke" d="
  M 299.02 166.23
  A 9.06 9.06 0.0 0 0 289.96 157.17
  A 9.06 9.06 0.0 0 0 280.90 166.23
  A 9.06 9.06 0.0 0 0 289.96 175.29
  A 9.06 9.06 0.0 0 0 299.02 166.23"
/>
<path stroke="#a77a49" vector-effect="non-scaling-stroke" d="
  M 55.79 204.75
  A 9.06 9.06 0.0 0 0 46.73 195.69
  A 9.06 9.06 0.0 0 0 37.67 204.75
  A 9.06 9.06 0.0 0 0 46.73 213.81
  A 9.06 9.06 0.0 0 0 55.79 204.75"
/>
<path stroke="#a77a49" vector-effect="non-scaling-stroke" d="
  M 292.91 204.76
  A 9.06 9.06 0.0 0 0 283.85 195.70
  A 9.06 9.06 0.0 0 0 274.79 204.76
  A 9.06 9.06 0.0 0 0 283.85 213.82
  A 9.06 9.06 0.0 0 0 292.91 204.76"
/>
<path stroke="#a77a49" vector-effect="non-scaling-stroke" d="
  M 73.48 239.51
  A 9.06 9.06 0.0 0 0 64.42 230.45
  A 9.06 9.06 0.0 0 0 55.36 239.51
  A 9.06 9.06 0.0 0 0 64.42 248.57
  A 9.06 9.06 0.0 0 0 73.48 239.51"
/>
<path stroke="#a77a49" vector-effect="non-scaling-stroke" d="
  M 275.21 239.51
  A 9.06 9.06 0.0 0 0 266.15 230.45
  A 9.06 9.06 0.0 0 0 257.09 239.51
  A 9.06 9.06 0.0 0 0 266.15 248.57
  A 9.06 9.06 0.0 0 0 275.21 239.51"
/>
<path stroke="#a77a49" vector-effect="non-scaling-stroke" d="
  M 101.07 267.09
  A 9.06 9.06 0.0 0 0 92.01 258.03
  A 9.06 9.06 0.0 0 0 82.95 267.09
  A 9.06 9.06 0.0 0 0 92.01 276.15
  A 9.06 9.06 0.0 0 0 101.07 267.09"
/>
<path stroke="#a77a49" vector-effect="non-scaling-stroke" d="
  M 247.62 267.08
  A 9.06 9.06 0.0 0 0 238.56 258.02
  A 9.06 9.06 0.0 0 0 229.50 267.08
  A 9.06 9.06 0.0 0 0 238.56 276.14
  A 9.06 9.06 0.0 0 0 247.62 267.08"
/>
<path stroke="#a77a49" vector-effect="non-scaling-stroke" d="
  M 135.82 284.00
  A 9.07 9.07 0.0 0 0 126.75 274.93
  A 9.07 9.07 0.0 0 0 117.68 284.00
  A 9.07 9.07 0.0 0 0 126.75 293.07
  A 9.07 9.07 0.0 0 0 135.82 284.00"
/>
<path stroke="#a77a49" vector-effect="non-scaling-stroke" d="
  M 212.86 284.01
  A 9.06 9.06 0.0 0 0 203.80 274.95
  A 9.06 9.06 0.0 0 0 194.74 284.01
  A 9.06 9.06 0.0 0 0 203.80 293.07
  A 9.06 9.06 0.0 0 0 212.86 284.01"
/>
<path stroke="#a77a49" vector-effect="non-scaling-stroke" d="
  M 174.34 290.11
  A 9.06 9.06 0.0 0 0 165.28 281.05
  A 9.06 9.06 0.0 0 0 156.22 290.11
  A 9.06 9.06 0.0 0 0 165.28 299.17
  A 9.06 9.06 0.0 0 0 174.34 290.11"
/>
<path stroke="#a77a49" vector-effect="non-scaling-stroke" d="
  M 239.54 166.23
  A 74.26 74.26 0.0 0 0 165.28 91.97
  A 74.26 74.26 0.0 0 0 91.02 166.23
  A 74.26 74.26 0.0 0 0 165.28 240.49
  A 74.26 74.26 0.0 0 0 239.54 166.23"
/>
<path stroke="#a77a49" vector-effect="non-scaling-stroke" d="
  M 221.95 166.23
  A 56.67 56.67 0.0 0 0 165.28 109.56
  A 56.67 56.67 0.0 0 0 108.61 166.23
  A 56.67 56.67 0.0 0 0 165.28 222.90
  A 56.67 56.67 0.0 0 0 221.95 166.23"
/>
<path stroke="#a77a49" vector-effect="non-scaling-stroke" d="
  M 216.26 166.22
  A 50.98 50.98 0.0 0 0 165.28 115.24
  A 50.98 50.98 0.0 0 0 114.30 166.22
  A 50.98 50.98 0.0 0 0 165.28 217.20
  A 50.98 50.98 0.0 0 0 216.26 166.22"
/>
<path stroke="#a77a49" vector-effect="non-scaling-stroke" d="
  M 195.07 166.23
  A 29.79 29.79 0.0 0 0 165.28 136.44
  A 29.79 29.79 0.0 0 0 135.49 166.23
  A 29.79 29.79 0.0 0 0 165.28 196.02
  A 29.79 29.79 0.0 0 0 195.07 166.23"
/>
</g>
<path fill="#4e3b91" d="
  M 0.00 174.97
  L 0.00 157.87
  Q 1.72 127.67 13.13 101.15
  C 33.24 54.40 73.66 19.34 123.34 6.23
  Q 152.57 -1.48 183.56 1.88
  C 263.46 10.56 325.88 76.20 330.34 156.84
  Q 333.01 205.05 309.63 247.01
  Q 289.76 282.69 255.15 305.04
  C 180.07 353.51 80.72 333.92 29.29 260.48
  Q 2.92 222.82 0.00 174.97
  Z
  M 312.79 166.23
  A 147.51 147.51 0.0 0 0 165.28 18.72
  A 147.51 147.51 0.0 0 0 17.77 166.23
  A 147.51 147.51 0.0 0 0 165.28 313.74
  A 147.51 147.51 0.0 0 0 312.79 166.23
  Z"
/>
<path fill="#ffb800" d="
  M 312.79 166.23
  A 147.51 147.51 0.0 0 1 165.28 313.74
  A 147.51 147.51 0.0 0 1 17.77 166.23
  A 147.51 147.51 0.0 0 1 165.28 18.72
  A 147.51 147.51 0.0 0 1 312.79 166.23
  Z
  M 307.10 166.23
  A 141.82 141.82 0.0 0 0 165.28 24.41
  A 141.82 141.82 0.0 0 0 23.46 166.23
  A 141.82 141.82 0.0 0 0 165.28 308.05
  A 141.82 141.82 0.0 0 0 307.10 166.23
  Z"
/>
<path fill="#4e3b91" d="
  M 307.10 166.23
  A 141.82 141.82 0.0 0 1 165.28 308.05
  A 141.82 141.82 0.0 0 1 23.46 166.23
  A 141.82 141.82 0.0 0 1 165.28 24.41
  A 141.82 141.82 0.0 0 1 307.10 166.23
  Z
  M 174.34 41.54
  A 9.06 9.06 0.0 0 0 165.28 32.48
  A 9.06 9.06 0.0 0 0 156.22 41.54
  A 9.06 9.06 0.0 0 0 165.28 50.60
  A 9.06 9.06 0.0 0 0 174.34 41.54
  Z
  M 135.82 47.66
  A 9.06 9.06 0.0 0 0 126.76 38.60
  A 9.06 9.06 0.0 0 0 117.70 47.66
  A 9.06 9.06 0.0 0 0 126.76 56.72
  A 9.06 9.06 0.0 0 0 135.82 47.66
  Z
  M 212.86 47.66
  A 9.06 9.06 0.0 0 0 203.80 38.60
  A 9.06 9.06 0.0 0 0 194.74 47.66
  A 9.06 9.06 0.0 0 0 203.80 56.72
  A 9.06 9.06 0.0 0 0 212.86 47.66
  Z
  M 101.06 65.36
  A 9.06 9.06 0.0 0 0 92.00 56.30
  A 9.06 9.06 0.0 0 0 82.94 65.36
  A 9.06 9.06 0.0 0 0 92.00 74.42
  A 9.06 9.06 0.0 0 0 101.06 65.36
  Z
  M 247.61 65.37
  A 9.06 9.06 0.0 0 0 238.55 56.31
  A 9.06 9.06 0.0 0 0 229.49 65.37
  A 9.06 9.06 0.0 0 0 238.55 74.43
  A 9.06 9.06 0.0 0 0 247.61 65.37
  Z
  M 270.23 166.23
  A 104.95 104.95 0.0 0 0 165.28 61.28
  A 104.95 104.95 0.0 0 0 60.33 166.23
  A 104.95 104.95 0.0 0 0 165.28 271.18
  A 104.95 104.95 0.0 0 0 270.23 166.23
  Z
  M 73.48 92.96
  A 9.05 9.05 0.0 0 0 64.43 83.91
  A 9.05 9.05 0.0 0 0 55.38 92.96
  A 9.05 9.05 0.0 0 0 64.43 102.01
  A 9.05 9.05 0.0 0 0 73.48 92.96
  Z
  M 275.21 92.96
  A 9.06 9.06 0.0 0 0 266.15 83.90
  A 9.06 9.06 0.0 0 0 257.09 92.96
  A 9.06 9.06 0.0 0 0 266.15 102.02
  A 9.06 9.06 0.0 0 0 275.21 92.96
  Z
  M 55.77 127.71
  A 9.06 9.06 0.0 0 0 46.71 118.65
  A 9.06 9.06 0.0 0 0 37.65 127.71
  A 9.06 9.06 0.0 0 0 46.71 136.77
  A 9.06 9.06 0.0 0 0 55.77 127.71
  Z
  M 292.92 127.71
  A 9.06 9.06 0.0 0 0 283.86 118.65
  A 9.06 9.06 0.0 0 0 274.80 127.71
  A 9.06 9.06 0.0 0 0 283.86 136.77
  A 9.06 9.06 0.0 0 0 292.92 127.71
  Z
  M 49.67 166.22
  A 9.06 9.06 0.0 0 0 40.61 157.16
  A 9.06 9.06 0.0 0 0 31.55 166.22
  A 9.06 9.06 0.0 0 0 40.61 175.28
  A 9.06 9.06 0.0 0 0 49.67 166.22
  Z
  M 299.02 166.23
  A 9.06 9.06 0.0 0 0 289.96 157.17
  A 9.06 9.06 0.0 0 0 280.90 166.23
  A 9.06 9.06 0.0 0 0 289.96 175.29
  A 9.06 9.06 0.0 0 0 299.02 166.23
  Z
  M 55.79 204.75
  A 9.06 9.06 0.0 0 0 46.73 195.69
  A 9.06 9.06 0.0 0 0 37.67 204.75
  A 9.06 9.06 0.0 0 0 46.73 213.81
  A 9.06 9.06 0.0 0 0 55.79 204.75
  Z
  M 292.91 204.76
  A 9.06 9.06 0.0 0 0 283.85 195.70
  A 9.06 9.06 0.0 0 0 274.79 204.76
  A 9.06 9.06 0.0 0 0 283.85 213.82
  A 9.06 9.06 0.0 0 0 292.91 204.76
  Z
  M 73.48 239.51
  A 9.06 9.06 0.0 0 0 64.42 230.45
  A 9.06 9.06 0.0 0 0 55.36 239.51
  A 9.06 9.06 0.0 0 0 64.42 248.57
  A 9.06 9.06 0.0 0 0 73.48 239.51
  Z
  M 275.21 239.51
  A 9.06 9.06 0.0 0 0 266.15 230.45
  A 9.06 9.06 0.0 0 0 257.09 239.51
  A 9.06 9.06 0.0 0 0 266.15 248.57
  A 9.06 9.06 0.0 0 0 275.21 239.51
  Z
  M 101.07 267.09
  A 9.06 9.06 0.0 0 0 92.01 258.03
  A 9.06 9.06 0.0 0 0 82.95 267.09
  A 9.06 9.06 0.0 0 0 92.01 276.15
  A 9.06 9.06 0.0 0 0 101.07 267.09
  Z
  M 247.62 267.08
  A 9.06 9.06 0.0 0 0 238.56 258.02
  A 9.06 9.06 0.0 0 0 229.50 267.08
  A 9.06 9.06 0.0 0 0 238.56 276.14
  A 9.06 9.06 0.0 0 0 247.62 267.08
  Z
  M 135.82 284.00
  A 9.07 9.07 0.0 0 0 126.75 274.93
  A 9.07 9.07 0.0 0 0 117.68 284.00
  A 9.07 9.07 0.0 0 0 126.75 293.07
  A 9.07 9.07 0.0 0 0 135.82 284.00
  Z
  M 212.86 284.01
  A 9.06 9.06 0.0 0 0 203.80 274.95
  A 9.06 9.06 0.0 0 0 194.74 284.01
  A 9.06 9.06 0.0 0 0 203.80 293.07
  A 9.06 9.06 0.0 0 0 212.86 284.01
  Z
  M 174.34 290.11
  A 9.06 9.06 0.0 0 0 165.28 281.05
  A 9.06 9.06 0.0 0 0 156.22 290.11
  A 9.06 9.06 0.0 0 0 165.28 299.17
  A 9.06 9.06 0.0 0 0 174.34 290.11
  Z"
/>
<circle fill="#ffb800" cx="165.28" cy="41.54" r="9.06"/>
<circle fill="#ffb800" cx="126.76" cy="47.66" r="9.06"/>
<circle fill="#ffb800" cx="203.80" cy="47.66" r="9.06"/>
<circle fill="#ffb800" cx="92.00" cy="65.36" r="9.06"/>
<circle fill="#ffb800" cx="238.55" cy="65.37" r="9.06"/>
<path fill="#ffb800" d="
  M 270.23 166.23
  A 104.95 104.95 0.0 0 1 165.28 271.18
  A 104.95 104.95 0.0 0 1 60.33 166.23
  A 104.95 104.95 0.0 0 1 165.28 61.28
  A 104.95 104.95 0.0 0 1 270.23 166.23
  Z
  M 239.54 166.23
  A 74.26 74.26 0.0 0 0 165.28 91.97
  A 74.26 74.26 0.0 0 0 91.02 166.23
  A 74.26 74.26 0.0 0 0 165.28 240.49
  A 74.26 74.26 0.0 0 0 239.54 166.23
  Z"
/>
<circle fill="#ffb800" cx="64.43" cy="92.96" r="9.05"/>
<circle fill="#ffb800" cx="266.15" cy="92.96" r="9.06"/>
<path fill="#4e3b91" d="
  M 239.54 166.23
  A 74.26 74.26 0.0 0 1 165.28 240.49
  A 74.26 74.26 0.0 0 1 91.02 166.23
  A 74.26 74.26 0.0 0 1 165.28 91.97
  A 74.26 74.26 0.0 0 1 239.54 166.23
  Z
  M 221.95 166.23
  A 56.67 56.67 0.0 0 0 165.28 109.56
  A 56.67 56.67 0.0 0 0 108.61 166.23
  A 56.67 56.67 0.0 0 0 165.28 222.90
  A 56.67 56.67 0.0 0 0 221.95 166.23
  Z"
/>
<path fill="#ffb800" d="
  M 221.95 166.23
  A 56.67 56.67 0.0 0 1 165.28 222.90
  A 56.67 56.67 0.0 0 1 108.61 166.23
  A 56.67 56.67 0.0 0 1 165.28 109.56
  A 56.67 56.67 0.0 0 1 221.95 166.23
  Z
  M 216.26 166.22
  A 50.98 50.98 0.0 0 0 165.28 115.24
  A 50.98 50.98 0.0 0 0 114.30 166.22
  A 50.98 50.98 0.0 0 0 165.28 217.20
  A 50.98 50.98 0.0 0 0 216.26 166.22
  Z"
/>
<path fill="#4e3b91" d="
  M 216.26 166.22
  A 50.98 50.98 0.0 0 1 165.28 217.20
  A 50.98 50.98 0.0 0 1 114.30 166.22
  A 50.98 50.98 0.0 0 1 165.28 115.24
  A 50.98 50.98 0.0 0 1 216.26 166.22
  Z
  M 195.07 166.23
  A 29.79 29.79 0.0 0 0 165.28 136.44
  A 29.79 29.79 0.0 0 0 135.49 166.23
  A 29.79 29.79 0.0 0 0 165.28 196.02
  A 29.79 29.79 0.0 0 0 195.07 166.23
  Z"
/>
<circle fill="#ffb800" cx="46.71" cy="127.71" r="9.06"/>
<circle fill="#ffb800" cx="283.86" cy="127.71" r="9.06"/>
<circle fill="#ffb800" cx="165.28" cy="166.23" r="29.79"/>
<circle fill="#ffb800" cx="40.61" cy="166.22" r="9.06"/>
<circle fill="#ffb800" cx="289.96" cy="166.23" r="9.06"/>
<circle fill="#ffb800" cx="46.73" cy="204.75" r="9.06"/>
<circle fill="#ffb800" cx="283.85" cy="204.76" r="9.06"/>
<circle fill="#ffb800" cx="64.42" cy="239.51" r="9.06"/>
<circle fill="#ffb800" cx="266.15" cy="239.51" r="9.06"/>
<circle fill="#ffb800" cx="92.01" cy="267.09" r="9.06"/>
<circle fill="#ffb800" cx="238.56" cy="267.08" r="9.06"/>
<circle fill="#ffb800" cx="126.75" cy="284.00" r="9.07"/>
<circle fill="#ffb800" cx="203.80" cy="284.01" r="9.06"/>
<circle fill="#ffb800" cx="165.28" cy="290.11" r="9.06"/>
</svg>
