<?xml version="1.0" encoding="UTF-8" standalone="no"?>
<!DOCTYPE svg PUBLIC "-//W3C//DTD SVG 1.1//EN" "http://www.w3.org/Graphics/SVG/1.1/DTD/svg11.dtd">
<svg xmlns="http://www.w3.org/2000/svg" version="1.1" viewBox="0.00 0.00 341.00 348.00">
<g stroke-width="2.00" fill="none" stroke-linecap="butt">
<path stroke="#a77a49" vector-effect="non-scaling-stroke" d="
  M 266.14 173.91
  A 95.86 95.86 0.0 0 0 170.28 78.05
  A 95.86 95.86 0.0 0 0 74.42 173.91
  A 95.86 95.86 0.0 0 0 170.28 269.77
  A 95.86 95.86 0.0 0 0 266.14 173.91"
/>
<path stroke="#a77a49" vector-effect="non-scaling-stroke" d="
  M 262.34 173.92
  A 92.05 92.05 0.0 0 0 170.29 81.87
  A 92.05 92.05 0.0 0 0 78.24 173.92
  A 92.05 92.05 0.0 0 0 170.29 265.97
  A 92.05 92.05 0.0 0 0 262.34 173.92"
/>
<path stroke="#a77a49" vector-effect="non-scaling-stroke" d="
  M 176.24 92.94
  A 5.94 5.94 0.0 0 0 170.30 87.00
  A 5.94 5.94 0.0 0 0 164.36 92.94
  A 5.94 5.94 0.0 0 0 170.30 98.88
  A 5.94 5.94 0.0 0 0 176.24 92.94"
/>
<path stroke="#a77a49" vector-effect="non-scaling-stroke" d="
  M 151.21 96.90
  A 5.94 5.94 0.0 0 0 145.27 90.96
  A 5.94 5.94 0.0 0 0 139.33 96.90
  A 5.94 5.94 0.0 0 0 145.27 102.84
  A 5.94 5.94 0.0 0 0 151.21 96.90"
/>
<path stroke="#a77a49" vector-effect="non-scaling-stroke" d="
  M 201.26 96.90
  A 5.94 5.94 0.0 0 0 195.32 90.96
  A 5.94 5.94 0.0 0 0 189.38 96.90
  A 5.94 5.94 0.0 0 0 195.32 102.84
  A 5.94 5.94 0.0 0 0 201.26 96.90"
/>
<path stroke="#a77a49" vector-effect="non-scaling-stroke" d="
  M 128.62 108.40
  A 5.94 5.94 0.0 0 0 122.68 102.46
  A 5.94 5.94 0.0 0 0 116.74 108.40
  A 5.94 5.94 0.0 0 0 122.68 114.34
  A 5.94 5.94 0.0 0 0 128.62 108.40"
/>
<path stroke="#a77a49" vector-effect="non-scaling-stroke" d="
  M 223.82 108.40
  A 5.94 5.94 0.0 0 0 217.88 102.46
  A 5.94 5.94 0.0 0 0 211.94 108.40
  A 5.94 5.94 0.0 0 0 217.88 114.34
  A 5.94 5.94 0.0 0 0 223.82 108.40"
/>
<path stroke="#a77a49" vector-effect="non-scaling-stroke" d="
  M 238.51 173.91
  A 68.22 68.22 0.0 0 0 170.29 105.69
  A 68.22 68.22 0.0 0 0 102.07 173.91
  A 68.22 68.22 0.0 0 0 170.29 242.13
  A 68.22 68.22 0.0 0 0 238.51 173.91"
/>
<path stroke="#a77a49" vector-effect="non-scaling-stroke" d="
  M 110.73 126.32
  A 5.95 5.95 0.0 0 0 104.78 120.37
  A 5.95 5.95 0.0 0 0 98.83 126.32
  A 5.95 5.95 0.0 0 0 104.78 132.27
  A 5.95 5.95 0.0 0 0 110.73 126.32"
/>
<path stroke="#a77a49" vector-effect="non-scaling-stroke" d="
  M 241.75 126.32
  A 5.94 5.94 0.0 0 0 235.81 120.38
  A 5.94 5.94 0.0 0 0 229.87 126.32
  A 5.94 5.94 0.0 0 0 235.81 132.26
  A 5.94 5.94 0.0 0 0 241.75 126.32"
/>
<path stroke="#a77a49" vector-effect="non-scaling-stroke" d="
  M 99.21 148.89
  A 5.94 5.94 0.0 0 0 93.27 142.95
  A 5.94 5.94 0.0 0 0 87.33 148.89
  A 5.94 5.94 0.0 0 0 93.27 154.83
  A 5.94 5.94 0.0 0 0 99.21 148.89"
/>
<path stroke="#a77a49" vector-effect="non-scaling-stroke" d="
  M 253.25 148.90
  A 5.94 5.94 0.0 0 0 247.31 142.96
  A 5.94 5.94 0.0 0 0 241.37 148.90
  A 5.94 5.94 0.0 0 0 247.31 154.84
  A 5.94 5.94 0.0 0 0 253.25 148.90"
/>
<path stroke="#a77a49" vector-effect="non-scaling-stroke" d="
  M 95.25 173.92
  A 5.93 5.93 0.0 0 0 89.32 167.99
  A 5.93 5.93 0.0 0 0 83.39 173.92
  A 5.93 5.93 0.0 0 0 89.32 179.85
  A 5.93 5.93 0.0 0 0 95.25 173.92"
/>
<path stroke="#a77a49" vector-effect="non-scaling-stroke" d="
  M 257.20 173.91
  A 5.94 5.94 0.0 0 0 251.26 167.97
  A 5.94 5.94 0.0 0 0 245.32 173.91
  A 5.94 5.94 0.0 0 0 251.26 179.85
  A 5.94 5.94 0.0 0 0 257.20 173.91"
/>
<path stroke="#a77a49" vector-effect="non-scaling-stroke" d="
  M 99.22 198.94
  A 5.94 5.94 0.0 0 0 93.28 193.00
  A 5.94 5.94 0.0 0 0 87.34 198.94
  A 5.94 5.94 0.0 0 0 93.28 204.88
  A 5.94 5.94 0.0 0 0 99.22 198.94"
/>
<path stroke="#a77a49" vector-effect="non-scaling-stroke" d="
  M 253.25 198.93
  A 5.94 5.94 0.0 0 0 247.31 192.99
  A 5.94 5.94 0.0 0 0 241.37 198.93
  A 5.94 5.94 0.0 0 0 247.31 204.87
  A 5.94 5.94 0.0 0 0 253.25 198.93"
/>
<path stroke="#a77a49" vector-effect="non-scaling-stroke" d="
  M 110.71 221.50
  A 5.94 5.94 0.0 0 0 104.77 215.56
  A 5.94 5.94 0.0 0 0 98.83 221.50
  A 5.94 5.94 0.0 0 0 104.77 227.44
  A 5.94 5.94 0.0 0 0 110.71 221.50"
/>
<path stroke="#a77a49" vector-effect="non-scaling-stroke" d="
  M 241.72 221.51
  A 5.93 5.93 0.0 0 0 235.79 215.58
  A 5.93 5.93 0.0 0 0 229.86 221.51
  A 5.93 5.93 0.0 0 0 235.79 227.44
  A 5.93 5.93 0.0 0 0 241.72 221.51"
/>
<path stroke="#a77a49" vector-effect="non-scaling-stroke" d="
  M 128.62 239.41
  A 5.94 5.94 0.0 0 0 122.68 233.47
  A 5.94 5.94 0.0 0 0 116.74 239.41
  A 5.94 5.94 0.0 0 0 122.68 245.35
  A 5.94 5.94 0.0 0 0 128.62 239.41"
/>
<path stroke="#a77a49" vector-effect="non-scaling-stroke" d="
  M 223.81 239.42
  A 5.93 5.93 0.0 0 0 217.88 233.49
  A 5.93 5.93 0.0 0 0 211.95 239.42
  A 5.93 5.93 0.0 0 0 217.88 245.35
  A 5.93 5.93 0.0 0 0 223.81 239.42"
/>
<path stroke="#a77a49" vector-effect="non-scaling-stroke" d="
  M 151.21 250.93
  A 5.94 5.94 0.0 0 0 145.27 244.99
  A 5.94 5.94 0.0 0 0 139.33 250.93
  A 5.94 5.94 0.0 0 0 145.27 256.87
  A 5.94 5.94 0.0 0 0 151.21 250.93"
/>
<path stroke="#a77a49" vector-effect="non-scaling-stroke" d="
  M 201.25 250.92
  A 5.93 5.93 0.0 0 0 195.32 244.99
  A 5.93 5.93 0.0 0 0 189.39 250.92
  A 5.93 5.93 0.0 0 0 195.32 256.85
  A 5.93 5.93 0.0 0 0 201.25 250.92"
/>
<path stroke="#a77a49" vector-effect="non-scaling-stroke" d="
  M 176.24 254.88
  A 5.94 5.94 0.0 0 0 170.30 248.94
  A 5.94 5.94 0.0 0 0 164.36 254.88
  A 5.94 5.94 0.0 0 0 170.30 260.82
  A 5.94 5.94 0.0 0 0 176.24 254.88"
/>
<path stroke="#a77a49" vector-effect="non-scaling-stroke" d="
  M 218.56 173.91
  A 48.28 48.28 0.0 0 0 170.28 125.63
  A 48.28 48.28 0.0 0 0 122.00 173.91
  A 48.28 48.28 0.0 0 0 170.28 222.19
  A 48.28 48.28 0.0 0 0 218.56 173.91"
/>
<path stroke="#a77a49" vector-effect="non-scaling-stroke" d="
  M 207.14 173.92
  A 36.86 36.86 0.0 0 0 170.28 137.06
  A 36.86 36.86 0.0 0 0 133.42 173.92
  A 36.86 36.86 0.0 0 0 170.28 210.78
  A 36.86 36.86 0.0 0 0 207.14 173.92"
/>
<path stroke="#a77a49" vector-effect="non-scaling-stroke" d="
  M 203.33 173.92
  A 33.05 33.05 0.0 0 0 170.28 140.87
  A 33.05 33.05 0.0 0 0 137.23 173.92
  A 33.05 33.05 0.0 0 0 170.28 206.97
  A 33.05 33.05 0.0 0 0 203.33 173.92"
/>
<path stroke="#a77a49" vector-effect="non-scaling-stroke" d="
  M 189.68 173.92
  A 19.40 19.40 0.0 0 0 170.28 154.52
  A 19.40 19.40 0.0 0 0 150.88 173.92
  A 19.40 19.40 0.0 0 0 170.28 193.32
  A 19.40 19.40 0.0 0 0 189.68 173.92"
/>
</g>
<path fill="#4e3b91" d="
  M 286.31 166.00
  C 286.88 174.53 294.30 180.70 302.45 183.51
  C 304.96 184.38 308.96 185.73 311.79 187.31
  C 324.84 194.58 333.15 207.42 333.90 222.10
  C 335.25 248.48 312.86 269.34 286.66 266.22
  A 0.25 0.24 31.6 0 1 286.55 265.77
  Q 297.71 258.23 294.60 245.30
  C 292.27 235.57 281.80 229.98 271.71 232.83
  A 2.12 2.10 -76.2 0 0 270.78 233.40
  C 264.46 240.03 265.59 248.79 269.68 256.32
  C 271.45 259.58 275.21 264.14 276.85 267.79
  Q 284.87 285.61 277.61 302.87
  C 270.90 318.83 255.05 328.79 237.60 328.29
  Q 222.22 327.85 210.08 317.02
  A 0.28 0.28 0.0 0 1 210.29 316.53
  C 221.65 317.44 231.54 307.88 229.91 296.07
  Q 228.53 286.01 218.54 281.43
  C 215.46 280.02 209.91 283.50 207.98 285.72
  Q 202.72 291.78 202.13 300.29
  C 201.85 304.35 201.99 309.42 201.24 312.88
  Q 197.64 329.58 184.96 338.92
  C 169.31 350.46 148.03 349.99 133.02 337.65
  Q 121.73 328.36 118.37 313.10
  A 0.27 0.26 -77.5 0 1 118.79 312.83
  Q 127.28 319.49 136.51 316.33
  C 147.69 312.51 152.29 299.76 146.31 289.69
  Q 145.16 287.76 142.94 287.05
  C 135.31 284.62 127.63 288.32 122.63 293.92
  C 119.49 297.45 116.98 301.47 113.62 304.54
  C 100.63 316.39 81.67 319.75 65.86 311.64
  C 45.27 301.08 37.03 277.20 46.49 256.10
  A 0.26 0.26 0.0 0 1 46.98 256.14
  C 52.45 275.87 79.62 274.19 82.82 254.24
  Q 83.21 251.79 82.06 249.99
  C 77.72 243.22 69.25 241.43 61.76 242.86
  C 57.45 243.69 52.07 245.84 47.73 246.27
  Q 30.22 248.00 17.30 238.43
  C -7.61 220.00 -4.84 183.14 21.74 167.65
  A 0.30 0.29 85.2 0 1 22.16 168.01
  C 18.15 179.21 23.82 189.92 35.10 192.76
  Q 42.58 194.64 49.99 189.51
  Q 54.55 186.35 54.25 181.83
  C 53.69 173.29 46.27 167.12 38.12 164.31
  C 35.61 163.44 31.61 162.09 28.78 160.51
  C 15.73 153.24 7.42 140.40 6.67 125.72
  C 5.32 99.34 27.71 78.48 53.91 81.60
  A 0.25 0.24 31.6 0 1 54.02 82.05
  Q 42.86 89.59 45.97 102.52
  C 48.30 112.25 58.77 117.84 68.86 114.99
  A 2.12 2.10 -76.2 0 0 69.79 114.42
  C 76.11 107.79 74.98 99.03 70.89 91.50
  C 69.12 88.24 65.36 83.68 63.72 80.03
  Q 55.70 62.21 62.96 44.95
  C 69.67 28.99 85.52 19.03 102.97 19.53
  Q 118.35 19.97 130.49 30.80
  A 0.28 0.28 0.0 0 1 130.28 31.29
  C 118.92 30.38 109.03 39.94 110.66 51.75
  Q 112.04 61.81 122.03 66.39
  C 125.11 67.80 130.66 64.32 132.59 62.10
  Q 137.85 56.04 138.44 47.53
  C 138.72 43.47 138.58 38.40 139.33 34.94
  Q 142.93 18.24 155.61 8.90
  C 171.26 -2.64 192.54 -2.17 207.55 10.17
  Q 218.84 19.46 222.20 34.72
  A 0.27 0.26 -77.5 0 1 221.78 34.99
  Q 213.29 28.33 204.06 31.49
  C 192.88 35.31 188.28 48.06 194.26 58.13
  Q 195.41 60.06 197.63 60.77
  C 205.26 63.20 212.94 59.50 217.94 53.90
  C 221.08 50.37 223.59 46.35 226.95 43.28
  C 239.94 31.43 258.90 28.07 274.71 36.18
  C 295.30 46.74 303.54 70.62 294.08 91.72
  A 0.26 0.26 0.0 0 1 293.59 91.68
  C 288.12 71.95 260.95 73.63 257.75 93.58
  Q 257.36 96.03 258.51 97.83
  C 262.85 104.60 271.32 106.39 278.81 104.96
  C 283.12 104.13 288.50 101.98 292.84 101.55
  Q 310.35 99.82 323.27 109.39
  C 348.18 127.82 345.41 164.68 318.83 180.17
  A 0.30 0.29 85.2 0 1 318.41 179.81
  C 322.42 168.61 316.75 157.90 305.47 155.06
  Q 297.99 153.18 290.57 158.31
  Q 286.01 161.47 286.31 166.00
  Z
  M 266.14 173.91
  A 95.86 95.86 0.0 0 0 170.28 78.05
  A 95.86 95.86 0.0 0 0 74.42 173.91
  A 95.86 95.86 0.0 0 0 170.28 269.77
  A 95.86 95.86 0.0 0 0 266.14 173.91
  Z"
/>
<path fill="#ffb800" d="
  M 266.14 173.91
  A 95.86 95.86 0.0 0 1 170.28 269.77
  A 95.86 95.86 0.0 0 1 74.42 173.91
  A 95.86 95.86 0.0 0 1 170.28 78.05
  A 95.86 95.86 0.0 0 1 266.14 173.91
  Z
  M 262.34 173.92
  A 92.05 92.05 0.0 0 0 170.29 81.87
  A 92.05 92.05 0.0 0 0 78.24 173.92
  A 92.05 92.05 0.0 0 0 170.29 265.97
  A 92.05 92.05 0.0 0 0 262.34 173.92
  Z"
/>
<path fill="#4e3b91" d="
  M 262.34 173.92
  A 92.05 92.05 0.0 0 1 170.29 265.97
  A 92.05 92.05 0.0 0 1 78.24 173.92
  A 92.05 92.05 0.0 0 1 170.29 81.87
  A 92.05 92.05 0.0 0 1 262.34 173.92
  Z
  M 176.24 92.94
  A 5.94 5.94 0.0 0 0 170.30 87.00
  A 5.94 5.94 0.0 0 0 164.36 92.94
  A 5.94 5.94 0.0 0 0 170.30 98.88
  A 5.94 5.94 0.0 0 0 176.24 92.94
  Z
  M 151.21 96.90
  A 5.94 5.94 0.0 0 0 145.27 90.96
  A 5.94 5.94 0.0 0 0 139.33 96.90
  A 5.94 5.94 0.0 0 0 145.27 102.84
  A 5.94 5.94 0.0 0 0 151.21 96.90
  Z
  M 201.26 96.90
  A 5.94 5.94 0.0 0 0 195.32 90.96
  A 5.94 5.94 0.0 0 0 189.38 96.90
  A 5.94 5.94 0.0 0 0 195.32 102.84
  A 5.94 5.94 0.0 0 0 201.26 96.90
  Z
  M 128.62 108.40
  A 5.94 5.94 0.0 0 0 122.68 102.46
  A 5.94 5.94 0.0 0 0 116.74 108.40
  A 5.94 5.94 0.0 0 0 122.68 114.34
  A 5.94 5.94 0.0 0 0 128.62 108.40
  Z
  M 223.82 108.40
  A 5.94 5.94 0.0 0 0 217.88 102.46
  A 5.94 5.94 0.0 0 0 211.94 108.40
  A 5.94 5.94 0.0 0 0 217.88 114.34
  A 5.94 5.94 0.0 0 0 223.82 108.40
  Z
  M 238.51 173.91
  A 68.22 68.22 0.0 0 0 170.29 105.69
  A 68.22 68.22 0.0 0 0 102.07 173.91
  A 68.22 68.22 0.0 0 0 170.29 242.13
  A 68.22 68.22 0.0 0 0 238.51 173.91
  Z
  M 110.73 126.32
  A 5.95 5.95 0.0 0 0 104.78 120.37
  A 5.95 5.95 0.0 0 0 98.83 126.32
  A 5.95 5.95 0.0 0 0 104.78 132.27
  A 5.95 5.95 0.0 0 0 110.73 126.32
  Z
  M 241.75 126.32
  A 5.94 5.94 0.0 0 0 235.81 120.38
  A 5.94 5.94 0.0 0 0 229.87 126.32
  A 5.94 5.94 0.0 0 0 235.81 132.26
  A 5.94 5.94 0.0 0 0 241.75 126.32
  Z
  M 99.21 148.89
  A 5.94 5.94 0.0 0 0 93.27 142.95
  A 5.94 5.94 0.0 0 0 87.33 148.89
  A 5.94 5.94 0.0 0 0 93.27 154.83
  A 5.94 5.94 0.0 0 0 99.21 148.89
  Z
  M 253.25 148.90
  A 5.94 5.94 0.0 0 0 247.31 142.96
  A 5.94 5.94 0.0 0 0 241.37 148.90
  A 5.94 5.94 0.0 0 0 247.31 154.84
  A 5.94 5.94 0.0 0 0 253.25 148.90
  Z
  M 95.25 173.92
  A 5.93 5.93 0.0 0 0 89.32 167.99
  A 5.93 5.93 0.0 0 0 83.39 173.92
  A 5.93 5.93 0.0 0 0 89.32 179.85
  A 5.93 5.93 0.0 0 0 95.25 173.92
  Z
  M 257.20 173.91
  A 5.94 5.94 0.0 0 0 251.26 167.97
  A 5.94 5.94 0.0 0 0 245.32 173.91
  A 5.94 5.94 0.0 0 0 251.26 179.85
  A 5.94 5.94 0.0 0 0 257.20 173.91
  Z
  M 99.22 198.94
  A 5.94 5.94 0.0 0 0 93.28 193.00
  A 5.94 5.94 0.0 0 0 87.34 198.94
  A 5.94 5.94 0.0 0 0 93.28 204.88
  A 5.94 5.94 0.0 0 0 99.22 198.94
  Z
  M 253.25 198.93
  A 5.94 5.94 0.0 0 0 247.31 192.99
  A 5.94 5.94 0.0 0 0 241.37 198.93
  A 5.94 5.94 0.0 0 0 247.31 204.87
  A 5.94 5.94 0.0 0 0 253.25 198.93
  Z
  M 110.71 221.50
  A 5.94 5.94 0.0 0 0 104.77 215.56
  A 5.94 5.94 0.0 0 0 98.83 221.50
  A 5.94 5.94 0.0 0 0 104.77 227.44
  A 5.94 5.94 0.0 0 0 110.71 221.50
  Z
  M 241.72 221.51
  A 5.93 5.93 0.0 0 0 235.79 215.58
  A 5.93 5.93 0.0 0 0 229.86 221.51
  A 5.93 5.93 0.0 0 0 235.79 227.44
  A 5.93 5.93 0.0 0 0 241.72 221.51
  Z
  M 128.62 239.41
  A 5.94 5.94 0.0 0 0 122.68 233.47
  A 5.94 5.94 0.0 0 0 116.74 239.41
  A 5.94 5.94 0.0 0 0 122.68 245.35
  A 5.94 5.94 0.0 0 0 128.62 239.41
  Z
  M 223.81 239.42
  A 5.93 5.93 0.0 0 0 217.88 233.49
  A 5.93 5.93 0.0 0 0 211.95 239.42
  A 5.93 5.93 0.0 0 0 217.88 245.35
  A 5.93 5.93 0.0 0 0 223.81 239.42
  Z
  M 151.21 250.93
  A 5.94 5.94 0.0 0 0 145.27 244.99
  A 5.94 5.94 0.0 0 0 139.33 250.93
  A 5.94 5.94 0.0 0 0 145.27 256.87
  A 5.94 5.94 0.0 0 0 151.21 250.93
  Z
  M 201.25 250.92
  A 5.93 5.93 0.0 0 0 195.32 244.99
  A 5.93 5.93 0.0 0 0 189.39 250.92
  A 5.93 5.93 0.0 0 0 195.32 256.85
  A 5.93 5.93 0.0 0 0 201.25 250.92
  Z
  M 176.24 254.88
  A 5.94 5.94 0.0 0 0 170.30 248.94
  A 5.94 5.94 0.0 0 0 164.36 254.88
  A 5.94 5.94 0.0 0 0 170.30 260.82
  A 5.94 5.94 0.0 0 0 176.24 254.88
  Z"
/>
<circle fill="#ffb800" cx="170.30" cy="92.94" r="5.94"/>
<circle fill="#ffb800" cx="145.27" cy="96.90" r="5.94"/>
<circle fill="#ffb800" cx="195.32" cy="96.90" r="5.94"/>
<circle fill="#ffb800" cx="122.68" cy="108.40" r="5.94"/>
<circle fill="#ffb800" cx="217.88" cy="108.40" r="5.94"/>
<path fill="#ffb800" d="
  M 238.51 173.91
  A 68.22 68.22 0.0 0 1 170.29 242.13
  A 68.22 68.22 0.0 0 1 102.07 173.91
  A 68.22 68.22 0.0 0 1 170.29 105.69
  A 68.22 68.22 0.0 0 1 238.51 173.91
  Z
  M 218.56 173.91
  A 48.28 48.28 0.0 0 0 170.28 125.63
  A 48.28 48.28 0.0 0 0 122.00 173.91
  A 48.28 48.28 0.0 0 0 170.28 222.19
  A 48.28 48.28 0.0 0 0 218.56 173.91
  Z"
/>
<circle fill="#ffb800" cx="104.78" cy="126.32" r="5.95"/>
<circle fill="#ffb800" cx="235.81" cy="126.32" r="5.94"/>
<path fill="#4e3b91" d="
  M 218.56 173.91
  A 48.28 48.28 0.0 0 1 170.28 222.19
  A 48.28 48.28 0.0 0 1 122.00 173.91
  A 48.28 48.28 0.0 0 1 170.28 125.63
  A 48.28 48.28 0.0 0 1 218.56 173.91
  Z
  M 207.14 173.92
  A 36.86 36.86 0.0 0 0 170.28 137.06
  A 36.86 36.86 0.0 0 0 133.42 173.92
  A 36.86 36.86 0.0 0 0 170.28 210.78
  A 36.86 36.86 0.0 0 0 207.14 173.92
  Z"
/>
<path fill="#ffb800" d="
  M 207.14 173.92
  A 36.86 36.86 0.0 0 1 170.28 210.78
  A 36.86 36.86 0.0 0 1 133.42 173.92
  A 36.86 36.86 0.0 0 1 170.28 137.06
  A 36.86 36.86 0.0 0 1 207.14 173.92
  Z
  M 203.33 173.92
  A 33.05 33.05 0.0 0 0 170.28 140.87
  A 33.05 33.05 0.0 0 0 137.23 173.92
  A 33.05 33.05 0.0 0 0 170.28 206.97
  A 33.05 33.05 0.0 0 0 203.33 173.92
  Z"
/>
<path fill="#4e3b91" d="
  M 203.33 173.92
  A 33.05 33.05 0.0 0 1 170.28 206.97
  A 33.05 33.05 0.0 0 1 137.23 173.92
  A 33.05 33.05 0.0 0 1 170.28 140.87
  A 33.05 33.05 0.0 0 1 203.33 173.92
  Z
  M 189.68 173.92
  A 19.40 19.40 0.0 0 0 170.28 154.52
  A 19.40 19.40 0.0 0 0 150.88 173.92
  A 19.40 19.40 0.0 0 0 170.28 193.32
  A 19.40 19.40 0.0 0 0 189.68 173.92
  Z"
/>
<circle fill="#ffb800" cx="93.27" cy="148.89" r="5.94"/>
<circle fill="#ffb800" cx="247.31" cy="148.90" r="5.94"/>
<circle fill="#ffb800" cx="170.28" cy="173.92" r="19.40"/>
<circle fill="#ffb800" cx="89.32" cy="173.92" r="5.93"/>
<circle fill="#ffb800" cx="251.26" cy="173.91" r="5.94"/>
<circle fill="#ffb800" cx="93.28" cy="198.94" r="5.94"/>
<circle fill="#ffb800" cx="247.31" cy="198.93" r="5.94"/>
<circle fill="#ffb800" cx="104.77" cy="221.50" r="5.94"/>
<circle fill="#ffb800" cx="235.79" cy="221.51" r="5.93"/>
<circle fill="#ffb800" cx="122.68" cy="239.41" r="5.94"/>
<circle fill="#ffb800" cx="217.88" cy="239.42" r="5.93"/>
<circle fill="#ffb800" cx="145.27" cy="250.93" r="5.94"/>
<circle fill="#ffb800" cx="195.32" cy="250.92" r="5.93"/>
<circle fill="#ffb800" cx="170.30" cy="254.88" r="5.94"/>
</svg>
